<?xml version="1.0" standalone="no"?>
<!DOCTYPE svg PUBLIC "-//W3C//DTD SVG 20010904//EN"
 "http://www.w3.org/TR/2001/REC-SVG-20010904/DTD/svg10.dtd">
<svg version="1.0" xmlns="http://www.w3.org/2000/svg"
 width="340.000000pt" height="301.000000pt" viewBox="0 0 340.000000 301.000000"
 preserveAspectRatio="xMidYMid meet">

<g transform="translate(0.000000,301.000000) scale(0.100000,-0.100000)"
fill="#000000" stroke="none">
<path d="M0 1505 l0 -1505 1698 0 1698 0 0 1505 1 1505 -1699 0 -1698 0 0
-1505z m1723 1318 c23 -15 58 -36 77 -46 35 -19 52 -29 125 -73 22 -13 51 -30
65 -37 14 -7 45 -26 70 -42 47 -30 84 -52 135 -80 17 -9 48 -27 70 -40 22 -13
56 -33 75 -44 71 -39 75 -48 78 -203 4 -147 12 -168 50 -136 9 8 28 20 42 26
14 7 42 22 62 35 21 12 74 44 119 70 93 56 128 59 140 13 6 -23 3 -32 -19 -53
-15 -14 -40 -31 -57 -39 -16 -8 -48 -25 -70 -38 -22 -14 -53 -32 -70 -40 -16
-9 -48 -27 -70 -40 -22 -14 -54 -31 -72 -39 -17 -9 -36 -24 -42 -35 -7 -14
-11 -172 -11 -487 0 -413 2 -466 16 -472 8 -3 25 0 37 6 49 27 94 53 132 76
22 14 51 31 65 38 14 6 27 14 30 17 14 16 84 50 102 50 24 0 58 -27 58 -45 0
-14 -47 -57 -80 -73 -14 -7 -43 -23 -65 -37 -22 -13 -53 -31 -70 -39 -16 -9
-48 -27 -70 -41 -22 -13 -51 -29 -65 -35 -14 -6 -35 -21 -47 -32 -22 -20 -23
-29 -23 -164 0 -83 -5 -153 -11 -167 -6 -13 -25 -32 -42 -41 -18 -9 -63 -37
-102 -61 -38 -24 -83 -51 -100 -60 -16 -8 -48 -26 -70 -40 -22 -13 -51 -30
-65 -37 -14 -7 -45 -26 -70 -43 -25 -17 -56 -36 -70 -43 -14 -7 -43 -23 -65
-37 -22 -13 -50 -29 -63 -34 -12 -6 -25 -18 -28 -26 -5 -11 -22 -15 -70 -15
-38 0 -64 4 -64 11 0 5 -15 16 -34 24 -19 8 -37 19 -40 24 -3 5 -29 21 -58 36
-29 15 -60 33 -68 40 -8 8 -26 19 -40 25 -14 6 -41 21 -62 33 -20 12 -66 40
-103 62 -37 22 -84 50 -104 62 -20 12 -47 28 -61 36 -67 35 -102 62 -115 88
-13 23 -15 108 -15 523 0 331 -4 503 -11 519 -6 13 -23 28 -37 35 -28 12 -150
84 -167 99 -5 4 -21 14 -35 21 -44 22 -89 49 -124 75 -38 30 -39 63 -2 76 23
9 65 -11 181 -84 39 -24 84 -51 101 -59 17 -7 35 -19 38 -25 4 -6 16 -11 27
-11 18 0 19 10 19 320 0 307 1 321 20 340 11 11 24 20 30 20 5 0 44 24 87 53
43 29 89 58 103 65 27 13 37 19 120 72 30 19 66 41 80 48 14 7 57 32 95 57 39
25 79 49 91 54 11 5 41 23 65 40 54 38 68 38 122 4z"/>
<path d="M1630 2715 c-7 -8 -16 -15 -21 -15 -8 0 -54 -25 -157 -87 -21 -12
-50 -29 -67 -38 -16 -8 -46 -26 -66 -38 -87 -53 -173 -103 -204 -119 -31 -16
-33 -20 -24 -41 6 -13 23 -29 37 -35 15 -7 45 -23 67 -37 22 -13 54 -31 70
-40 17 -9 48 -27 70 -40 22 -14 55 -32 73 -42 17 -9 32 -20 32 -25 0 -4 5 -8
11 -8 6 0 36 -15 66 -32 104 -62 136 -78 155 -78 20 0 38 9 114 57 28 18 64
38 80 45 16 7 31 15 34 19 4 5 81 50 173 102 18 10 50 29 72 42 22 13 52 29
66 35 14 6 31 22 37 35 12 26 8 29 -118 98 -30 16 -62 36 -70 43 -8 7 -26 18
-40 24 -14 6 -43 21 -65 35 -22 13 -53 31 -70 40 -16 9 -55 31 -85 50 -30 19
-60 34 -66 35 -6 0 -17 7 -24 15 -7 8 -25 15 -40 15 -15 0 -33 -7 -40 -15z"/>
<path d="M1027 2264 c-4 -4 -7 -139 -7 -299 l0 -292 91 -54 c144 -86 162 -97
194 -114 17 -8 46 -26 67 -38 75 -45 148 -87 152 -87 3 0 22 -12 43 -26 61
-41 63 -34 63 287 0 310 3 297 -75 340 -50 28 -80 45 -127 72 -20 12 -83 49
-140 81 -57 33 -104 63 -106 68 -2 4 -9 8 -16 8 -6 0 -28 11 -47 24 -41 28
-81 41 -92 30z"/>
<path d="M2250 2248 c-19 -12 -60 -35 -90 -51 -30 -16 -62 -35 -70 -41 -8 -7
-26 -18 -40 -24 -14 -7 -43 -23 -65 -37 -22 -13 -49 -29 -60 -34 -11 -6 -42
-24 -70 -41 -27 -16 -61 -35 -75 -42 -61 -30 -70 -51 -70 -156 0 -53 4 -103 9
-111 10 -16 17 -14 92 32 108 65 147 87 157 87 6 0 12 4 14 8 2 5 34 26 71 48
38 21 85 49 105 61 21 12 47 27 60 32 27 13 84 52 95 66 4 6 6 57 5 115 -3
118 -9 125 -68 88z"/>
<path d="M2250 1883 c-32 -22 -77 -49 -112 -65 -16 -7 -28 -15 -28 -19 0 -4
-15 -12 -32 -20 -18 -7 -35 -16 -38 -19 -4 -6 -169 -102 -239 -140 -15 -8 -42
-25 -59 -38 l-32 -23 0 -103 c0 -125 9 -139 64 -101 20 14 48 28 61 31 14 3
25 9 25 13 0 4 15 15 33 24 17 10 50 28 72 42 22 13 54 31 70 40 17 9 48 27
70 40 22 14 58 35 80 47 22 12 47 27 55 33 9 5 30 19 48 30 l32 20 -2 110 c-3
101 -5 110 -23 113 -11 1 -31 -5 -45 -15z"/>
<path d="M1027 1534 c-4 -4 -7 -53 -7 -109 l0 -103 33 -24 c17 -13 43 -29 57
-36 14 -7 43 -24 65 -37 22 -14 55 -32 73 -42 17 -9 32 -20 32 -24 0 -4 11
-10 25 -13 13 -3 46 -21 72 -39 53 -36 92 -58 140 -81 17 -9 34 -20 37 -25 10
-16 59 -23 67 -9 5 7 9 57 9 111 0 107 -4 115 -80 155 -40 21 -101 56 -145 83
-16 11 -43 26 -60 35 -16 8 -46 25 -67 37 -20 12 -67 40 -105 61 -37 22 -70
43 -73 47 -8 12 -64 22 -73 13z"/>
<path d="M2260 1533 c-8 -3 -17 -9 -20 -13 -3 -4 -18 -15 -35 -24 -16 -9 -48
-28 -70 -41 -22 -13 -53 -31 -70 -40 -16 -9 -47 -26 -67 -38 -123 -72 -219
-127 -224 -127 -3 0 -12 -6 -19 -12 -8 -7 -21 -19 -30 -26 -13 -11 -15 -53
-15 -293 0 -168 4 -288 10 -299 10 -19 55 4 328 167 20 12 51 29 67 38 17 9
48 27 70 40 22 13 54 30 70 38 67 32 66 23 63 343 -3 281 -4 289 -23 291 -11
1 -27 -1 -35 -4z"/>
<path d="M1033 1173 c-9 -3 -13 -36 -13 -112 0 -123 -2 -121 95 -172 33 -17
67 -37 75 -43 8 -7 26 -18 40 -25 14 -6 43 -23 65 -36 22 -14 54 -32 70 -41
17 -8 47 -25 67 -37 20 -12 69 -41 107 -64 66 -39 72 -40 81 -23 11 21 12 185
1 213 -6 17 -21 28 -86 62 -16 9 -47 26 -67 38 -146 87 -245 145 -275 160 -20
10 -42 25 -50 33 -8 8 -20 14 -26 14 -7 0 -23 9 -37 20 -27 21 -28 21 -47 13z"/>
<path d="M1027 803 c-10 -10 -8 -176 2 -192 5 -8 23 -22 40 -30 69 -37 166
-95 169 -103 2 -4 8 -8 14 -8 9 0 63 -30 226 -127 20 -13 48 -27 62 -33 14 -6
33 -18 42 -27 35 -31 48 -10 48 76 0 93 -10 127 -42 136 -13 4 -32 15 -43 24
-11 9 -40 27 -65 40 -25 13 -52 29 -60 36 -8 6 -26 17 -40 23 -14 7 -43 23
-65 37 -22 13 -53 32 -70 40 -16 9 -46 26 -67 38 -133 80 -139 83 -151 70z"/>
<path d="M2275 800 c-3 -5 -21 -17 -38 -25 -18 -8 -50 -26 -72 -40 -22 -13
-51 -29 -65 -35 -13 -6 -27 -15 -30 -19 -3 -5 -21 -17 -42 -27 -20 -11 -82
-46 -138 -79 -55 -33 -115 -67 -132 -76 -41 -21 -46 -37 -47 -137 -1 -89 11
-110 47 -80 9 8 28 20 42 26 14 7 43 23 65 37 22 13 54 31 70 40 46 24 78 43
98 57 9 7 30 19 46 28 126 66 232 135 237 154 3 11 4 57 2 101 -2 65 -6 80
-20 83 -9 2 -19 -2 -23 -8z"/>
</g>
</svg>
